// Tone frequencies
#include "pitches.h"

//Oh Canada melody
int melody[] = {
NOTE_A4,NOTE_C5,NOTE_C5,NOTE_F4,NOTE_G4,NOTE_A4,NOTE_AS4,NOTE_C5,NOTE_D5, 
NOTE_G4,0,NOTE_A4,NOTE_G4,NOTE_B4,NOTE_C5,NOTE_D5,
NOTE_E5,NOTE_E5,NOTE_D5,NOTE_D5,NOTE_C5,NOTE_G4,NOTE_A4,NOTE_AS4,NOTE_A4,NOTE_G4,NOTE_A4,NOTE_AS4,
NOTE_C5,NOTE_AS4,NOTE_A4,NOTE_AS4,NOTE_C5,NOTE_D5,NOTE_C5,NOTE_AS4,NOTE_A4,NOTE_G4,NOTE_G4,NOTE_A4,
NOTE_AS4,NOTE_A4, NOTE_G4,NOTE_A4,NOTE_AS4,NOTE_C5,NOTE_AS4,NOTE_A4,NOTE_A4,NOTE_G4,NOTE_C5,NOTE_C5,NOTE_B4,NOTE_A4,NOTE_B4,NOTE_C5, 
NOTE_A4,NOTE_C5,NOTE_C5,NOTE_F4,NOTE_AS4,NOTE_D5,NOTE_D5,NOTE_G4, 
NOTE_C5,NOTE_CS5, NOTE_CS5, NOTE_D5, NOTE_AS4, NOTE_A4, NOTE_G4, NOTE_F4, NOTE_G4, NOTE_A4,
NOTE_C5,NOTE_F5,NOTE_F5,NOTE_D5,NOTE_AS4,NOTE_A4,NOTE_G4,NOTE_C5,NOTE_E4,NOTE_F4 
};

//Oh Canada them tempo
int tempo[] = {
2,2.67,8,1.33,4,4,4,4,4, 
1.33,4,2,2.67,8,1.33,4,
4,4,4,4,1.33,5.33,16,2.67,8,4,5.33,16, 
2.67,8,4,5.33,16,4,4,4,4,1.33,5.33,16, 
2.67,8,4,5.33,16,2.67,8,4,4,4.4,8,8,8,8,1, 
2,2.67,8,1,2,2.67,8,1, 
2,2.67,8,4,4,4,4,2,2,1,
2,2.67,8,4,4,4,4,2,2,1
};

